<?xml version="1.0" encoding="UTF-8" standalone="no"?>
<svg
   xmlns:dc="http://purl.org/dc/elements/1.1/"
   xmlns:cc="http://creativecommons.org/ns#"
   xmlns:rdf="http://www.w3.org/1999/02/22-rdf-syntax-ns#"
   xmlns:svg="http://www.w3.org/2000/svg"
   xmlns="http://www.w3.org/2000/svg"
   xmlns:sodipodi="http://sodipodi.sourceforge.net/DTD/sodipodi-0.dtd"
   xmlns:inkscape="http://www.inkscape.org/namespaces/inkscape"
   inkscape:version="1.0 (4035a4fb49, 2020-05-01)"
   sodipodi:docname="javascript.svg"
   id="svg12"
   version="1.1"
   viewBox="0 0 78.562 88.918002"
   height="88.917999"
   width="78.561996">
  <metadata
     id="metadata18">
    <rdf:RDF>
      <cc:Work
         rdf:about="">
        <dc:format>image/svg+xml</dc:format>
        <dc:type
           rdf:resource="http://purl.org/dc/dcmitype/StillImage" />
      </cc:Work>
    </rdf:RDF>
  </metadata>
  <defs
     id="defs16" />
  <sodipodi:namedview
     inkscape:current-layer="svg12"
     inkscape:window-maximized="0"
     inkscape:window-y="0"
     inkscape:window-x="0"
     inkscape:cy="33.623498"
     inkscape:cx="39.280998"
     inkscape:zoom="2.2172035"
     showgrid="false"
     id="namedview14"
     inkscape:window-height="510"
     inkscape:window-width="732"
     inkscape:pageshadow="2"
     inkscape:pageopacity="0"
     guidetolerance="10"
     gridtolerance="10"
     objecttolerance="10"
     borderopacity="1"
     bordercolor="#666666"
     pagecolor="#ffffff" />
  <path
     id="path2"
     data-name="Path 275"
     d="M 78.562,0 H 0 l 7.365,79.867 31.912,9.051 31.912,-9.051 z"
     fill="#e6a329" />
  <path
     id="path4"
     data-name="Path 276"
     d="M 39.277,6.507 V 82.15 l 25.856,-7.325 6.29,-68.318 z"
     fill="#f1bf22" />
  <path
     id="path6"
     data-name="Path 277"
     d="M 59.847,16.305 H 20.092 l -2.769,29.9 0.057,-0.186 h 33.774 l -1.1,12.651 -10.776,3.1 -10.935,-3.15 -0.655,-7.657 h -9.926 l 1.416,15.3 20.1,5.706 20.109,-5.706 2.769,-30.032 H 26.312 l 0.46,-10.006 h 24.869 l 0.372,5.733 h 10.01 z"
     fill="#ffffff" />
  <path
     id="path8"
     data-name="Path 278"
     d="M 39.286,16.305 H 20.092 l -2.769,29.9 0.057,-0.186 H 39.285 V 36.265 H 27.71 L 28.17,26.259 H 39.286 Z M 27.71,50.968 h -9.949 l 1.416,15.292 20.1,5.7 V 61.784 L 28.342,58.626 Z"
     fill="#ebebeb" />
</svg>
